<svg height="48" viewBox="0 0 512 512" width="48" xmlns="http://www.w3.org/2000/svg"><g fill="#fff"><path d="m497.731 25.247c-11.723-11.727-29.506-12.939-39.721-2.728l-38.217 38.213c-10.211 10.212-29.59 29.597-29.59 29.597s9.837 9.829 22.641 22.641c26.885 26.885 41.002 21.739 57.32-3.718 9.251-34.144 20.08-34.08 30.296-44.292 10.211-10.211 8.994-27.993-2.729-39.713z"/><path d="m435.573 22.814c1.06 1.061 2.764 1.061 3.821 0l13.032-13.036c1.061-1.061 1.061-2.768 0-3.822l-5.161-5.161c-1.057-1.061-2.764-1.061-3.822 0l-13.036 13.027c-1.057 1.053-1.057 2.769.004 3.822z"/><path d="m410.251 48.127c1.057 1.07 2.765 1.07 3.818.016l13.04-13.036c1.053-1.061 1.053-2.776 0-3.83l-5.165-5.161c-1.057-1.061-2.769-1.061-3.822 0l-13.04 13.036c-1.053 1.045-1.053 2.76.008 3.822z"/><path d="m384.929 73.457c1.057 1.061 2.764 1.061 3.818.008l13.036-13.036c1.057-1.053 1.057-2.768 0-3.83l-5.166-5.17c-1.053-1.053-2.764-1.053-3.821 0l-13.036 13.037c-1.053 1.061-1.053 2.777.004 3.83z"/><path d="m235.982 332.278-50.934-50.93-21.388 21.397 50.933 50.921z"/><path d="m199.372 368.896-50.934-50.938-21.396 21.396 50.937 50.93z"/><path d="m85.303 381.086 50.938 50.946 22.632-22.641-50.934-50.938z"/><path d="m372.868 262.84c-7.08.16-14.288 2.466-20.83 6.718-9.968 6.43-19.829 7.986-30.016 6-6.697-1.332-13.522-4.548-20.132-9.19l-12.964 12.956c9.071 6.909 19.047 11.775 29.558 13.897 14.392 2.952 29.777.367 43.395-8.584 3.877-2.537 8.045-3.733 11.332-3.782 3.354-.064 5.48.934 6.538 2.026.854.902 1.568 2.01 1.735 4.787.132 2.712-.627 7.068-3.332 12.86-2.452 5.265-5.344 9.222-8.627 12.509-3.718 3.717-8.006 6.605-12.876 9.158-7.284 3.821-15.836 6.749-24.699 10.499-8.831 3.765-18.106 8.472-26.087 16.434-8.309 8.265-14.731 19.929-17.874 35.836-7.619 38.07-21.636 65.961-39.486 83.782-10.399 10.387-22.078 17.464-34.966 21.46-12.88 3.973-27.052 4.882-42.454 2.425-19.972-3.174-37.854-12.014-52.705-22.122-14.858-10.092-26.569-21.356-34.316-29.111-1.651-1.643-3.119-3.127-4.42-4.435-1.292-1.285-2.78-2.76-4.424-4.404-7.754-7.754-19.019-19.466-29.114-34.32-10.096-14.854-18.939-32.74-22.122-52.7-2.453-15.461-1.564-29.757 2.445-42.777 4.021-13.019 11.144-24.834 21.595-35.293 17.806-17.838 45.569-31.703 83.522-38.812 13.81-2.592 25.106-6.23 34.516-10.761 9.406-4.531 16.893-10.004 22.9-16.02 11.3-11.328 17.232-24.148 22.876-35.868 5.652-11.807 10.985-22.546 20.311-31.863 1.049-1.053 2.17-2.106 3.338-3.127 9.226-8.057 18.11-12.366 26.295-14.519 8.181-2.138 15.74-2.107 22.146-1.053 1.815.255 4.053 1.388 4.87 2.281l.543.718-.024.542c-.156.559-.798 1.995-2.868 4.053-1.751 1.764-4.488 3.925-8.405 6.271-4.029 2.425-8.301 5.744-12.541 9.972-5.517 5.512-10.942 12.589-15.162 21.157-6.346 12.812-9.88 29.167-6.534 47.643.678 3.765 1.711 7.619 2.964 11.536l14.798-14.799c-1.727-9.645-1.101-18.198.906-25.768 3.044-11.384 9.382-20.662 15.764-27.037 3.235-3.246 6.486-5.72 9.071-7.267 4.882-2.928 8.775-5.88 11.875-8.976 2.413-2.409 4.344-4.914 5.756-7.642 2.134-4.029 2.956-8.68 2.134-12.892-.79-4.228-2.992-7.707-5.545-10.243-4.264-4.181-9.43-6.414-14.691-7.324-8.572-1.404-18.74-1.444-29.621 1.412-10.882 2.848-22.418 8.608-33.582 18.38-1.472 1.292-2.884 2.609-4.224 3.949-11.843 11.855-18.138 25.018-23.814 36.81-5.668 11.87-10.746 22.321-19.37 30.921-4.616 4.611-10.292 8.808-17.994 12.525-7.694 3.726-17.443 6.925-30.008 9.287-40.487 7.594-71.771 22.64-92.937 43.781-12.378 12.364-21.19 26.836-26.072 42.711-4.894 15.884-5.859 33.092-3.015 50.93 3.758 23.439 13.917 43.654 25.014 59.985 11.105 16.338 23.251 28.903 31.276 36.928 1.671 1.676 3.163 3.159 4.42 4.42 1.256 1.245 2.736 2.745 4.412 4.42 8.03 8.01 20.599 20.168 36.929 31.273 16.334 11.104 36.554 21.252 59.992 25.01 17.775 2.848 34.867 1.875 50.619-3.008 15.756-4.866 30.092-13.634 42.378-25.927 21.137-21.173 36.286-52.477 44.404-92.973 2.688-13.187 7.3-20.926 12.956-26.646 3.658-3.654 7.91-6.502 12.756-9.031 7.248-3.797 15.8-6.709 24.691-10.483 8.86-3.789 18.173-8.544 26.211-16.578 4.731-4.715 8.927-10.546 12.222-17.646 3.558-7.659 5.253-14.679 4.99-21.228-.223-6.502-2.74-12.573-6.984-16.762-5.35-5.321-12.602-7.435-19.618-7.291z"/><path d="m210.517 272.844 33.957 33.962 174.026-174.035-33.953-33.953z"/></g></svg>